<?xml version="1.0" encoding="utf-8"?>
<!-- Generator: Adobe Illustrator 20.0.0, SVG Export Plug-In . SVG Version: 6.00 Build 0)  -->
<svg version="1.1" id="Ebene_1" xmlns="http://www.w3.org/2000/svg" xmlns:xlink="http://www.w3.org/1999/xlink" x="0px" y="0px"
	 viewBox="0 0 16.6 16.6" style="enable-background:new 0 0 16.6 16.6;" xml:space="preserve">
<style type="text/css">
	.st0{fill:#FFFFFF;}
</style>
<title>lupe</title>
<path class="st0" d="M6.5,12C3.5,12,1,9.6,1,6.5S3.5,1,6.5,1c3,0,5.5,2.4,5.5,5.5C12,9.5,9.6,12,6.5,12C6.5,12,6.5,12,6.5,12z
	 M16.6,15.9l-5.2-5.2c2.3-2.7,2-6.8-0.8-9.2c-2.6-2.2-6.3-2-8.7,0.3C-0.6,4.5-0.6,8.6,2,11.1c2.4,2.3,6.2,2.5,8.7,0.3l5.2,5.2
	L16.6,15.9z"/>
</svg>
